<svg id="Layer_2" data-name="Layer 2" xmlns="http://www.w3.org/2000/svg" width="0.2in" height="0.2in" viewBox="0 0 16 16"><title>16</title><path d="M3.7,11.7a.1.1,0,0,0,.2-.2A10,10,0,0,1,3.7,7,12.9,12.9,0,0,1,4.8,4.2.1.1,0,0,0,4.7,4a1.8,1.8,0,0,0-1.6.2C2.5,4.8.6,7.2.3,9.5h0a6,6,0,0,0,3.3,2.1h0Z" fill="#a4d55d"/><path d="M12.4,11.7a.1.1,0,0,1-.2-.2,10,10,0,0,0,0-4.5A12.9,12.9,0,0,0,11,4.2a.1.1,0,0,1,.1-.2,1.8,1.8,0,0,1,1.6.2c.6.6,2.6,2.9,3,5.2h0a6,6,0,0,1-3.3,2.2h0Z" fill="#a4d55d"/><path d="M7.7,9.6a.6.6,0,1,1,0-1.2h.6a.6.6,0,1,1,0,1.2H8.2v2.7a6.8,6.8,0,0,0,3.3-.8,9.1,9.1,0,0,0,0-4.4h0a11.9,11.9,0,0,0-1.1-2.8,7.1,7.1,0,0,0-4.8,0A11.9,11.9,0,0,0,4.4,7.1a9,9,0,0,0,.3,4.5,8.2,8.2,0,0,0,3.1.8V9.6M7.4,7.1a.6.6,0,0,1-.6.5h-1a.6.6,0,0,1-.5-.4V7h.4V7H7V6.9h.4Zm3.2,0a.6.6,0,0,1-.6.5h-1a.6.6,0,0,1-.5-.4V7h.4V7h1.3V6.9h.4Z" fill="#a4d55d"/></svg>