<?xml version="1.0" encoding="utf-8"?>
<!-- Generator: Adobe Illustrator 20.1.0, SVG Export Plug-In . SVG Version: 6.00 Build 0)  -->
<svg version="1.1" id="Layer_2" xmlns="http://www.w3.org/2000/svg" xmlns:xlink="http://www.w3.org/1999/xlink" x="0px" y="0px"
	 viewBox="0 0 259.2 259.2" style="enable-background:new 0 0 259.2 259.2;" xml:space="preserve">
<style type="text/css">
	.st0{fill:none;stroke:#00B288;stroke-width:5;stroke-miterlimit:10;}
	.st1{fill:#00B288;}
	.st2{fill:#A4D55D;}
</style>
<title>256</title>
<path class="st0" d="M185.4,83.7c0,0-6.3-25.9-18-45.6c0,0-35.3-15.4-78.3-0.1C77.4,57.7,71,83.7,71,83.7s-8.6,43.9,4.4,72.8
	c0,0,55.5,29.9,110.4-0.2c10.6-29.6-0.3-71.9-0.3-71.9L185.4,83.7z"/>
<path class="st0" d="M139.8,81.4l0.8,3.1c0.6,2.6,3,4.4,5.7,4.5h15.8c2.8,0,5.2-2,5.8-4.8l0.6-2.8"/>
<path class="st0" d="M87.8,81.4l0.8,3.1c0.6,2.6,3,4.4,5.7,4.5h15.8c2.8,0,5.2-2,5.8-4.8l0.6-2.8"/>
<path class="st1" d="M123.8,105.5h9.4c5.5,0,10,4.5,10,10v0c0,5.5-4.5,10-10,10h-9.4c-5.5,0-10-4.5-10-10v0
	C113.8,110,118.3,105.5,123.8,105.5z"/>
<line class="st0" x1="128.6" y1="125.7" x2="129.3" y2="169.8"/>
<path class="st2" d="M59.2,156.4c1.3,0.3,2.5-0.5,2.8-1.7c0.1-0.4,0.1-0.9-0.1-1.3c-10.3-28.8-2.5-68.4-2.5-68.4S65.2,61.1,76,41.7
	c0.6-1.1,0.3-2.4-0.8-3.1c-0.2-0.1-0.5-0.2-0.8-0.3C69,37.1,56.6,35.2,50,42.1c-8.7,9-39,45.9-42.5,80.4c-0.1,0.6,0.1,1.2,0.5,1.6
	c3.5,4.5,23.4,27.6,51,32.2h0.2L59.2,156.4z"/>
<path class="st2" d="M201.1,156.3c-1.2,0.3-2.5-0.4-2.9-1.6c-0.1-0.4-0.1-0.9,0-1.3c9.4-29.1,0.3-68.5,0.3-68.5s-6.6-23.7-18-42.6
	c-0.7-1-0.3-2.4,0.7-3.1c0.2-0.1,0.4-0.2,0.6-0.3c5.6-1.5,17.8-3.7,24.6,2.9c9,8.7,40.5,44.4,45.2,78.9c0.1,0.6,0,1.2-0.4,1.7
	c-3.4,4.6-22.5,28.3-50,33.8H201L201.1,156.3z"/>
<path class="st1" d="M32.4,216v-23.2H36v19.9h12.5v3.2L32.4,216z"/>
<path class="st1" d="M58.4,216.3c-1.3,0-2.5-0.2-3.6-0.7c-2.1-0.9-3.7-2.6-4.6-4.8c-0.8-2.2-0.8-4.6,0-6.8c0.4-1.1,1-2,1.8-2.8
	c3.4-3.5,9.1-3.6,12.6-0.2c0.1,0.1,0.1,0.1,0.2,0.2c0.8,0.8,1.4,1.8,1.8,2.8c0.8,2.2,0.8,4.6,0,6.8c-0.4,1.1-1,2-1.8,2.8
	c-0.8,0.8-1.7,1.5-2.7,1.9C60.9,216.1,59.7,216.3,58.4,216.3z M53.4,207.5c0,0.8,0.1,1.6,0.4,2.3c0.3,0.7,0.6,1.3,1.1,1.8
	c0.5,0.5,1,0.9,1.6,1.2c1.3,0.6,2.8,0.6,4.1,0c0.6-0.3,1.2-0.7,1.6-1.2c0.5-0.5,0.9-1.2,1.1-1.8c0.5-1.5,0.5-3.1,0-4.6
	c-0.3-0.7-0.6-1.3-1.1-1.8c-0.5-0.5-1-0.9-1.6-1.2c-0.6-0.3-1.3-0.4-2-0.4c-0.7,0-1.4,0.2-2,0.5c-0.6,0.3-1.2,0.7-1.6,1.2
	c-0.5,0.5-0.9,1.2-1.1,1.8c-0.3,0.7-0.5,1.4-0.5,2.1L53.4,207.5z"/>
<path class="st1" d="M70.2,220h2.3c0.2-0.1,0.5-0.3,0.6-0.5c0.3-0.4,0.5-0.8,0.7-1.2l0.9-2.3l-7-17.1h3.6l5.3,13.9l4.7-13.9h3.4
	l-7.8,21.1c-0.3,1.1-1,2-1.9,2.6c-0.9,0.6-2,0.8-3,0.8l-1.8-0.3L70.2,220z"/>
<path class="st1" d="M91.6,216.3c-0.8,0-1.6-0.1-2.3-0.4c-0.7-0.3-1.3-0.6-1.8-1.1c-0.5-0.5-0.9-1.1-1.2-1.7
	c-0.3-0.7-0.4-1.4-0.4-2.1c0-0.8,0.2-1.5,0.5-2.2c0.4-0.7,0.9-1.3,1.5-1.7c0.7-0.5,1.5-0.9,2.3-1.1c1-0.3,1.9-0.4,2.9-0.4l2.4,0.2
	l2.1,0.6V205c0.1-1.1-0.4-2.2-1.1-2.9c-0.9-0.7-2-1.1-3.1-1c-0.9,0-1.9,0.2-2.7,0.5c-1,0.4-1.9,0.8-2.7,1.4l-1.1-2.3
	c2-1.4,4.4-2.2,6.9-2.2c2-0.1,3.9,0.5,5.5,1.8c1.4,1.4,2.1,3.2,1.9,5.2v6.2c0,0.3,0,0.6,0.2,0.9c0.2,0.2,0.5,0.3,0.8,0.3v3h-1.8
	c-0.6,0-1.2-0.2-1.6-0.5c-0.4-0.3-0.6-0.8-0.7-1.3v-1.1c-0.7,1-1.7,1.8-2.8,2.3C94.1,215.9,92.9,216.2,91.6,216.3z M92.6,213.6
	c0.8,0,1.7-0.2,2.4-0.5c0.7-0.3,1.3-0.7,1.8-1.3c0.4-0.3,0.7-0.7,0.7-1.2v-2.2l-1.9-0.5l-2-0.2c-1.1-0.1-2.2,0.2-3.1,0.8
	c-0.8,0.5-1.2,1.3-1.2,2.2c0,0.8,0.3,1.6,0.9,2.1c0.6,0.5,1.5,0.8,2.3,0.8H92.6z"/>
<path class="st1" d="M105.5,192.2h3.5V211c0,0.6,0.1,1.1,0.5,1.5c0.4,0.4,0.9,0.6,1.4,0.5h0.8l0.9-0.3l0.5,2.9l-1.8,0.6l-1.9,0.2
	c-1.1,0.1-2.1-0.3-2.9-1c-0.7-0.8-1.1-1.8-1-2.8V192.2z"/>
<path class="st1" d="M122.9,216v-23.2H133c1,0,2,0.2,2.9,0.6c0.8,0.4,1.6,1,2.2,1.7c0.6,0.7,1.2,1.5,1.5,2.4
	c0.3,0.9,0.5,1.8,0.5,2.7c0,0.8-0.1,1.5-0.3,2.2c-0.2,0.7-0.5,1.4-0.9,2c-0.4,0.6-0.9,1.2-1.4,1.6c-0.5,0.4-1.2,0.8-1.8,1l5.5,8.8
	h-4.2l-5.1-8.1h-5.5v8.1L122.9,216z M126.6,204.6h6.4c0.5,0,1-0.1,1.4-0.3c0.4-0.2,0.8-0.5,1.1-0.9c0.3-0.4,0.6-0.9,0.7-1.4
	c0.2-0.5,0.3-1.1,0.3-1.6c0-0.6-0.1-1.1-0.3-1.6c-0.2-0.5-0.5-1-0.8-1.4c-0.3-0.4-0.8-0.7-1.2-0.9c-0.4-0.2-0.9-0.3-1.4-0.3h-6.2
	V204.6z"/>
<path class="st1" d="M152,216.3c-1.3,0-2.5-0.2-3.6-0.7c-1.1-0.4-2-1.1-2.8-1.9c-0.8-0.8-1.4-1.8-1.8-2.8c-0.4-1.1-0.6-2.3-0.6-3.4
	c0-1.2,0.2-2.3,0.6-3.4c0.4-1.1,1-2,1.8-2.8c0.8-0.8,1.8-1.5,2.8-1.9c1.2-0.5,2.4-0.7,3.6-0.7c1.3,0,2.5,0.2,3.6,0.7
	c1,0.5,2,1.1,2.7,1.9c0.7,0.8,1.3,1.7,1.7,2.7c0.4,1.1,0.6,2.2,0.6,3.3c0,0.3,0,0.5,0,0.7v0.6H147c0,0.7,0.2,1.4,0.5,2
	c0.3,0.6,0.6,1.2,1.1,1.6c0.9,0.9,2.2,1.4,3.4,1.4l1.4-0.2l1.3-0.5l1-0.8c0.3-0.3,0.5-0.7,0.7-1.1l3,0.9c-0.6,1.3-1.7,2.4-2.9,3.1
	C155.2,215.8,153.6,216.3,152,216.3z M157.1,206.1c0-0.7-0.2-1.4-0.5-2c-0.3-0.6-0.7-1.1-1.1-1.5c-0.5-0.4-1-0.8-1.6-1
	c-0.6-0.3-1.3-0.4-1.9-0.4c-1.3,0-2.5,0.5-3.4,1.3c-0.5,0.4-0.8,0.9-1.1,1.5c-0.3,0.6-0.5,1.3-0.5,2L157.1,206.1z"/>
<path class="st1" d="M170,216.3l-2.1-0.2l-2.1-0.5l-1.9-0.7l-1.6-1l1.5-2.4c1.8,1.4,4,2.2,6.3,2.2c0.9,0,1.8-0.2,2.5-0.6
	c0.6-0.4,0.9-1,0.9-1.7c0.1-0.7-0.4-1.4-1-1.6c-1.1-0.4-2.2-0.8-3.3-1l-2.7-0.8c-0.6-0.2-1.3-0.5-1.8-0.9c-0.4-0.3-0.8-0.7-1-1.2
	c-0.2-0.5-0.3-1.1-0.3-1.7c0-0.8,0.2-1.6,0.5-2.3c0.3-0.7,0.8-1.3,1.4-1.7c0.6-0.5,1.4-0.8,2.1-1c0.9-0.3,1.7-0.4,2.6-0.4
	c1.2,0,2.4,0.2,3.5,0.6c1.1,0.4,2.2,0.9,3.1,1.6l-1.5,2.2c-1.5-1.2-3.4-1.8-5.3-1.8c-0.8,0-1.6,0.2-2.3,0.6c-0.6,0.4-1,1.1-0.9,1.8
	c0,0.3,0.1,0.6,0.2,0.9c0.1,0.3,0.4,0.5,0.6,0.6l1.1,0.5l1.7,0.5l3,0.8c0.8,0.2,1.5,0.6,2.1,1c0.5,0.3,0.9,0.8,1.2,1.3
	c0.3,0.6,0.4,1.2,0.4,1.8c0,0.8-0.2,1.5-0.5,2.2c-0.3,0.6-0.8,1.2-1.4,1.6c-0.7,0.5-1.4,0.8-2.2,1C171.9,216.2,171,216.3,170,216.3z
	"/>
<path class="st1" d="M178.9,207.4c0-1.2,0.2-2.3,0.6-3.4c0.8-2.1,2.4-3.9,4.6-4.8c1.2-0.5,2.4-0.7,3.6-0.7c1.6-0.1,3.2,0.3,4.6,1.1
	c1.2,0.7,2.2,1.8,2.8,3l-3.4,1.1c-0.4-0.7-0.9-1.3-1.6-1.7c-0.7-0.4-1.5-0.6-2.3-0.6c-0.7,0-1.4,0.1-2,0.4c-0.6,0.3-1.2,0.7-1.6,1.2
	c-0.5,0.5-0.9,1.1-1.1,1.8c-0.3,0.7-0.4,1.5-0.4,2.3c0,0.8,0.1,1.6,0.4,2.3c0.3,0.7,0.6,1.3,1.1,1.8c0.5,0.5,1,0.9,1.6,1.2
	c0.6,0.3,1.3,0.4,2,0.4l1.3-0.2l1.2-0.5l0.9-0.7c0.3-0.3,0.5-0.6,0.6-0.9l3.5,1c-0.6,1.3-1.6,2.4-2.8,3.1c-1.4,0.8-3,1.3-4.7,1.2
	c-1.3,0-2.5-0.2-3.6-0.7c-1.1-0.4-2-1.1-2.8-1.9c-0.8-0.8-1.4-1.8-1.8-2.8C179.1,209.5,178.9,208.4,178.9,207.4z"/>
<path class="st1" d="M203.4,216.3c-1.6,0.1-3.1-0.5-4-1.7c-1-1.5-1.5-3.3-1.4-5.2v-10.5h3.5v9.7c0,3,1.1,4.6,3.2,4.6
	c1,0,2.1-0.3,2.9-0.9c1-0.7,1.7-1.6,2.1-2.7v-10.6h3.5v12.9c0,0.3,0,0.6,0.2,0.9c0.2,0.2,0.5,0.3,0.8,0.3v3h-1.7
	c-1.1,0.1-2.2-0.7-2.3-1.8v-1.7c-0.7,1.2-1.7,2.2-2.9,2.8C206.1,215.9,204.8,216.3,203.4,216.3z"/>
<path class="st1" d="M226,216.3c-1.3,0-2.5-0.2-3.6-0.7c-1.1-0.4-2-1.1-2.8-1.9c-0.8-0.8-1.4-1.8-1.8-2.8c-0.4-1.1-0.6-2.3-0.6-3.4
	c0-1.2,0.2-2.3,0.6-3.4c0.4-1.1,1-2,1.8-2.8c0.8-0.8,1.8-1.5,2.8-1.9c1.2-0.5,2.4-0.7,3.6-0.7c1.3,0,2.5,0.2,3.6,0.7
	c1,0.5,2,1.1,2.7,1.9c0.7,0.8,1.3,1.7,1.7,2.7c0.4,1.1,0.6,2.2,0.6,3.3c0,0.3,0,0.5,0,0.7v0.6h-13.8c0,0.7,0.2,1.4,0.5,2
	c0.3,0.6,0.6,1.2,1.1,1.6c0.9,0.9,2.2,1.4,3.4,1.4l1.4-0.2l1.3-0.5l1-0.8c0.3-0.3,0.5-0.7,0.7-1.1l3,0.9c-0.6,1.3-1.7,2.4-2.9,3.1
	C229.2,215.8,227.6,216.2,226,216.3z M231.2,206.1c0-0.7-0.2-1.4-0.5-2c-0.3-0.6-0.7-1.1-1.1-1.5c-0.5-0.4-1-0.8-1.6-1
	c-0.6-0.3-1.3-0.4-1.9-0.4c-1.3,0-2.5,0.5-3.4,1.3c-0.5,0.4-0.8,0.9-1.1,1.5c-0.3,0.6-0.5,1.3-0.5,2L231.2,206.1z"/>
</svg>
