<svg xmlns="http://www.w3.org/2000/svg" width="38.4" height="38.4" data-name="Layer 2" viewBox="0 0 28.8 28.8"><path fill="none" stroke="#00b288" stroke-miterlimit="10" stroke-width=".8" d="M20.8 12.5a22 22 0 0 0-2.1-5.2 13.1 13.1 0 0 0-9 0 22 22 0 0 0-2.1 5.2s-1 5.1.5 8.3c0 0 6.4 3.4 12.6 0 1.2-3.4 0-8.2 0-8.2z"/><path fill="none" stroke="#00b288" stroke-miterlimit="10" stroke-width=".8" d="M15.6 12.2v.4a.7.7 0 0 0 .7.5h1.9a.7.7 0 0 0 .7-.6v-.3m-9.3 0v.4a.7.7 0 0 0 .7.5h1.8a.7.7 0 0 0 .7-.6v-.3"/><rect width="3.4" height="2.29" x="12.6" y="14.9" fill="#00b288" rx="1.1" ry="1.1"/><path fill="none" stroke="#00b288" stroke-miterlimit="10" stroke-width=".8" d="M14.3 16.6l.1 5.7"/><path fill="#a4d55d" d="M6.3 20.7a.3.3 0 0 0 .3-.3c-1.2-3.3-.3-7.9-.3-7.9a22.6 22.6 0 0 1 2-4.9.3.3 0 0 0-.2-.4 2.9 2.9 0 0 0-2.8.5C4.6 8.6.8 13 .4 16.9v.2a10.5 10.5 0 0 0 5.9 3.7zm16.2 0a.3.3 0 0 1-.4-.4c1.1-3.3 0-7.9 0-7.9A22.6 22.6 0 0 0 20 7.5a.3.3 0 0 1 .2-.4c.7-.2 2.1-.5 2.8.4s4.6 5.1 5.2 9v.2a10.5 10.5 0 0 1-5.5 3.9h-.1z"/></svg>