<svg xmlns="http://www.w3.org/2000/svg" width="86.4" height="86.4" data-name="Layer 2" viewBox="0 0 64 64"><path fill="none" stroke="#00b288" stroke-miterlimit="10" stroke-width="1.5" d="M45.9 22a47.9 47.9 0 0 0-4.5-11.3 28.5 28.5 0 0 0-19.5 0A47.8 47.8 0 0 0 17.4 22s-2.2 10.9 1.1 18.1c0 0 13.8 7.4 27.5-.1 2.7-7.3-.1-17.9-.1-17.9z"/><path fill="none" stroke="#00b288" stroke-miterlimit="10" stroke-width="1.5" d="M34.6 21.4l.2.8a1.5 1.5 0 0 0 1.4 1.1h3.9a1.5 1.5 0 0 0 1.4-1.2v-.7m-19.9 0l.2.8a1.5 1.5 0 0 0 1.4 1.1h3.9a1.5 1.5 0 0 0 1.4-1.2v-.7"/><rect width="7.3" height="5" x="28.1" y="27.4" fill="#00b288" rx="2.5" ry="2.5"/><path fill="none" stroke="#00b288" stroke-miterlimit="10" stroke-width="1.5" d="M31.7 32.4l.2 11"/><path fill="#a4d55d" d="M14.5 40a.6.6 0 0 0 .7-.7c-2.6-7.1-.6-17-.6-17a49.1 49.1 0 0 1 4.1-10.7.6.6 0 0 0-.4-.8c-1.4-.3-4.5-.8-6.1.9S2.5 23 1.6 31.6a.6.6 0 0 0 .1.4c.9 1.1 5.8 6.9 12.7 8h.1zm35.3 0a.6.6 0 0 1-.7-.7c2.4-7.2.1-17 .1-17a49.1 49.1 0 0 0-4.5-10.6.6.6 0 0 1 .3-.8c1.4-.4 4.4-.9 6.1.7s10.1 11 11.3 19.6a.6.6 0 0 1-.1.4c-.9 1.1-5.6 7.1-12.4 8.4h-.1z"/><path fill="#00b288" d="M7.8 54.9v-5.8h.9v5h3.1v.8zm6.5 0l-.9-.2-.7-.5a2.1 2.1 0 0 1-.4-.7 2.4 2.4 0 0 1 0-1.7 2.1 2.1 0 0 1 .4-.7l.7-.5.9-.2.9.2.7.5a2.1 2.1 0 0 1 .4.7 2.4 2.4 0 0 1 0 1.7 2.1 2.1 0 0 1-.4.7l-.7.5zM13 52.7a1.6 1.6 0 0 0 .1.6l.3.5.4.3h1l.4-.3.3-.5a1.7 1.7 0 0 0 0-1.1l-.3-.5-.4-.3h-1l-.4.3-.3.5a1.6 1.6 0 0 0-.1.5zm4.2 3.2h.8l.2-.3.2-.6-1.7-4.2h.9l1.3 3.5 1.1-3.7h.8l-1.9 5.2a1.3 1.3 0 0 1-.5.6l-.8.2h-.5zm5.3-1H22l-.5-.3-.3-.4a1.3 1.3 0 0 1-.1-.5 1.1 1.1 0 0 1 .1-.5l.4-.4.6-.3H24v-.3a1 1 0 0 0-.3-.7 1.1 1.1 0 0 0-.8-.3h-.7l-.7.4-.3-.6a3 3 0 0 1 1.7-.6 1.9 1.9 0 0 1 1.4.4 1.7 1.7 0 0 1 .5 1.3v1.5a.3.3 0 0 0 .1.2h.2v.8h-.8l-.2-.3V54l-.7.6zm.2-.7h.6l.5-.3a.4.4 0 0 0 .2-.3V53h-1l-.8.2a.6.6 0 0 0-.3.5.7.7 0 0 0 .2.5zm3.3-5.3h.9v4.7a.5.5 0 0 0 .1.4h.8v.7H27a1 1 0 0 1-.7-.3 1 1 0 0 1-.3-.4zm4.3 6v-5.8h2.5l.7.2.6.4.4.6a1.8 1.8 0 0 1 .1.7 1.9 1.9 0 0 1-.1.6l-.2.5-.4.4-.5.2 1.4 2.2h-1l-1.3-2h-1.3v2zm.9-2.8h1.9l.3-.2.2-.3a1.3 1.3 0 0 0 .1-.4 1.1 1.1 0 0 0-.1-.4l-.2-.3-.3-.2h-1.9zm6.4 2.8l-.9-.2-.7-.5a2.1 2.1 0 0 1-.4-.7 2.3 2.3 0 0 1-.2-.8 2.3 2.3 0 0 1 .2-.8 2.2 2.2 0 0 1 .4-.7l.7-.5.9-.2.9.2.7.5a2 2 0 0 1 .4.7 2.3 2.3 0 0 1 .2.8v.2h-3.5a1.4 1.4 0 0 0 .1.5l.3.4.4.3h1.1l.3-.2.2-.3.8.2a1.8 1.8 0 0 1-.7.8 2.2 2.2 0 0 1-1.2.3zm1.3-2.5a1.4 1.4 0 0 0-.1-.5l-.3-.4-.4-.2h-1l-.4.2-.3.4a1.5 1.5 0 0 0-.1.5zm3.2 2.5H41l-.5-.2-.4-.2.4-.6a2.7 2.7 0 0 0 1.6.5l.6-.2a.5.5 0 0 0 .2-.4.4.4 0 0 0-.3-.4l-.8-.3-.7-.2-.5-.2-.3-.3a1 1 0 0 1-.1-.4 1.2 1.2 0 0 1 .1-.6l.4-.4.5-.3h1.5l.8.4-.4.5a2.1 2.1 0 0 0-1.3-.5h-.6a.5.5 0 0 0-.2.5v.4l.2.2h.7l.8.2.5.2.3.3a1 1 0 0 1 .1.5 1.2 1.2 0 0 1-.1.5l-.3.4-.5.3zm2.2-2.2a2.3 2.3 0 0 1 .2-.8 2.1 2.1 0 0 1 .4-.7l.7-.5.9-.2a2.1 2.1 0 0 1 1.1.3 1.8 1.8 0 0 1 .7.8l-.9.3-.4-.4-.6-.2H46l-.4.3-.3.5a1.6 1.6 0 0 0-.1.6 1.6 1.6 0 0 0 .1.6l.3.5.4.3h1.1l.2-.2v-.2l.9.3a1.7 1.7 0 0 1-.7.8 2.2 2.2 0 0 1-1.2.3l-.9-.2-.7-.5-.4-.7a2.3 2.3 0 0 1 0-1zm6.1 2.2a1.2 1.2 0 0 1-1-.4 2.1 2.1 0 0 1-.3-1.3v-2.6h.9V53q0 1.1.8 1.1l.7-.2a1.5 1.5 0 0 0 .5-.7v-2.6h.9v3.2a.3.3 0 0 0 .1.2h.2v.8h-.4a.5.5 0 0 1-.6-.5V54a1.9 1.9 0 0 1-.7.7zm5.6 0l-.9-.2-.7-.5a2.1 2.1 0 0 1-.4-.7 2.3 2.3 0 0 1-.2-.8 2.3 2.3 0 0 1 .2-.8 2.2 2.2 0 0 1 .4-.7l.7-.5.9-.2.9.2.7.5a2 2 0 0 1 .4.7 2.3 2.3 0 0 1 .2.8v.2h-3.5a1.4 1.4 0 0 0 .1.5l.3.4.4.3h1.1l.3-.2.2-.3.8.2a1.8 1.8 0 0 1-.7.8 2.2 2.2 0 0 1-1.2.3zm1.3-2.5a1.4 1.4 0 0 0-.1-.5l-.3-.4-.4-.2h-1l-.4.2-.3.4a1.5 1.5 0 0 0-.1.5z"/></svg>