<svg xmlns="http://www.w3.org/2000/svg" width="19.2" height="19.2" data-name="Layer 2" viewBox="0 0 16 16"><path fill="#a4d55d" d="M3.7 11.7a.1.1 0 0 0 .2-.2A10 10 0 0 1 3.7 7a12.9 12.9 0 0 1 1.1-2.8.1.1 0 0 0-.1-.2 1.8 1.8 0 0 0-1.6.2c-.6.6-2.5 3-2.8 5.3a6 6 0 0 0 3.3 2.1zm8.7 0a.1.1 0 0 1-.2-.2 10 10 0 0 0 0-4.5A12.9 12.9 0 0 0 11 4.2a.1.1 0 0 1 .1-.2 1.8 1.8 0 0 1 1.6.2c.6.6 2.6 2.9 3 5.2a6 6 0 0 1-3.3 2.2z"/><path fill="#a4d55d" d="M7.7 9.6a.6.6 0 1 1 0-1.2h.6a.6.6 0 1 1 0 1.2h-.1v2.7a6.8 6.8 0 0 0 3.3-.8 9.1 9.1 0 0 0 0-4.4 11.9 11.9 0 0 0-1.1-2.8 7.1 7.1 0 0 0-4.8 0 11.9 11.9 0 0 0-1.2 2.8 9 9 0 0 0 .3 4.5 8.2 8.2 0 0 0 3.1.8V9.6m-.4-2.5a.6.6 0 0 1-.6.5h-1a.6.6 0 0 1-.5-.4V7H7v-.1h.4zm3.2 0a.6.6 0 0 1-.6.5H9a.6.6 0 0 1-.5-.4V7h1.7v-.1h.4z"/></svg>