<svg xmlns="http://www.w3.org/2000/svg" id="Layer_2" viewBox="0 0 259.2 259.2"><style>.st0{fill:none;stroke:#00b288;stroke-width:5;stroke-miterlimit:10}.st1{fill:#00b288}.st2{fill:#a4d55d}</style><path d="M185.4 83.7s-6.3-25.9-18-45.6c0 0-35.3-15.4-78.3-.1C77.4 57.7 71 83.7 71 83.7s-8.6 43.9 4.4 72.8c0 0 55.5 29.9 110.4-.2 10.6-29.6-.3-71.9-.3-71.9l-.1-.7z" class="st0"/><path d="M139.8 81.4l.8 3.1c.6 2.6 3 4.4 5.7 4.5h15.8c2.8 0 5.2-2 5.8-4.8l.6-2.8m-80.7 0l.8 3.1c.6 2.6 3 4.4 5.7 4.5h15.8c2.8 0 5.2-2 5.8-4.8l.6-2.8" class="st0"/><path d="M123.8 105.5h9.4c5.5 0 10 4.5 10 10s-4.5 10-10 10h-9.4c-5.5 0-10-4.5-10-10s4.5-10 10-10z" class="st1"/><path d="M128.6 125.7l.7 44.1" class="st0"/><path d="M59.2 156.4c1.3.3 2.5-.5 2.8-1.7.1-.4.1-.9-.1-1.3C51.6 124.6 59.4 85 59.4 85S65.2 61.1 76 41.7c.6-1.1.3-2.4-.8-3.1-.2-.1-.5-.2-.8-.3-5.4-1.2-17.8-3.1-24.4 3.8-8.7 9-39 45.9-42.5 80.4-.1.6.1 1.2.5 1.6 3.5 4.5 23.4 27.6 51 32.2h.2v.1zm141.9-.1c-1.2.3-2.5-.4-2.9-1.6-.1-.4-.1-.9 0-1.3 9.4-29.1.3-68.5.3-68.5s-6.6-23.7-18-42.6c-.7-1-.3-2.4.7-3.1l.6-.3c5.6-1.5 17.8-3.7 24.6 2.9 9 8.7 40.5 44.4 45.2 78.9.1.6 0 1.2-.4 1.7-3.4 4.6-22.5 28.3-50 33.8h-.2l.1.1z" class="st2"/><path d="M32.4 216v-23.2H36v19.9h12.5v3.2l-16.1.1zm26 .3c-1.3 0-2.5-.2-3.6-.7-2.1-.9-3.7-2.6-4.6-4.8-.8-2.2-.8-4.6 0-6.8.4-1.1 1-2 1.8-2.8 3.4-3.5 9.1-3.6 12.6-.2l.2.2c.8.8 1.4 1.8 1.8 2.8.8 2.2.8 4.6 0 6.8-.4 1.1-1 2-1.8 2.8-.8.8-1.7 1.5-2.7 1.9-1.2.6-2.4.8-3.7.8zm-5-8.8c0 .8.1 1.6.4 2.3.3.7.6 1.3 1.1 1.8.5.5 1 .9 1.6 1.2 1.3.6 2.8.6 4.1 0 .6-.3 1.2-.7 1.6-1.2.5-.5.9-1.2 1.1-1.8.5-1.5.5-3.1 0-4.6-.3-.7-.6-1.3-1.1-1.8-.5-.5-1-.9-1.6-1.2-.6-.3-1.3-.4-2-.4s-1.4.2-2 .5c-.6.3-1.2.7-1.6 1.2-.5.5-.9 1.2-1.1 1.8-.3.7-.5 1.4-.5 2.1v.1zM70.2 220h2.3c.2-.1.5-.3.6-.5.3-.4.5-.8.7-1.2l.9-2.3-7-17.1h3.6l5.3 13.9 4.7-13.9h3.4L76.9 220c-.3 1.1-1 2-1.9 2.6-.9.6-2 .8-3 .8l-1.8-.3V220zm21.4-3.7c-.8 0-1.6-.1-2.3-.4-.7-.3-1.3-.6-1.8-1.1-.5-.5-.9-1.1-1.2-1.7-.3-.7-.4-1.4-.4-2.1 0-.8.2-1.5.5-2.2.4-.7.9-1.3 1.5-1.7.7-.5 1.5-.9 2.3-1.1 1-.3 1.9-.4 2.9-.4l2.4.2 2.1.6V205c.1-1.1-.4-2.2-1.1-2.9-.9-.7-2-1.1-3.1-1-.9 0-1.9.2-2.7.5-1 .4-1.9.8-2.7 1.4l-1.1-2.3c2-1.4 4.4-2.2 6.9-2.2 2-.1 3.9.5 5.5 1.8 1.4 1.4 2.1 3.2 1.9 5.2v6.2c0 .3 0 .6.2.9.2.2.5.3.8.3v3h-1.8c-.6 0-1.2-.2-1.6-.5-.4-.3-.6-.8-.7-1.3V213c-.7 1-1.7 1.8-2.8 2.3-1.2.6-2.4.9-3.7 1zm1-2.7c.8 0 1.7-.2 2.4-.5s1.3-.7 1.8-1.3c.4-.3.7-.7.7-1.2v-2.2l-1.9-.5-2-.2c-1.1-.1-2.2.2-3.1.8-.8.5-1.2 1.3-1.2 2.2 0 .8.3 1.6.9 2.1.6.5 1.5.8 2.3.8h.1zm12.9-21.4h3.5V211c0 .6.1 1.1.5 1.5.4.4.9.6 1.4.5h.8l.9-.3.5 2.9-1.8.6-1.9.2c-1.1.1-2.1-.3-2.9-1-.7-.8-1.1-1.8-1-2.8v-20.4zm17.4 23.8v-23.2H133c1 0 2 .2 2.9.6.8.4 1.6 1 2.2 1.7.6.7 1.2 1.5 1.5 2.4.3.9.5 1.8.5 2.7 0 .8-.1 1.5-.3 2.2-.2.7-.5 1.4-.9 2-.4.6-.9 1.2-1.4 1.6-.5.4-1.2.8-1.8 1l5.5 8.8H137l-5.1-8.1h-5.5v8.1l-3.5.2zm3.7-11.4h6.4c.5 0 1-.1 1.4-.3.4-.2.8-.5 1.1-.9.3-.4.6-.9.7-1.4.2-.5.3-1.1.3-1.6 0-.6-.1-1.1-.3-1.6-.2-.5-.5-1-.8-1.4-.3-.4-.8-.7-1.2-.9-.4-.2-.9-.3-1.4-.3h-6.2v8.4zm25.4 11.7c-1.3 0-2.5-.2-3.6-.7-1.1-.4-2-1.1-2.8-1.9-.8-.8-1.4-1.8-1.8-2.8-.4-1.1-.6-2.3-.6-3.4 0-1.2.2-2.3.6-3.4.4-1.1 1-2 1.8-2.8.8-.8 1.8-1.5 2.8-1.9 1.2-.5 2.4-.7 3.6-.7 1.3 0 2.5.2 3.6.7 1 .5 2 1.1 2.7 1.9.7.8 1.3 1.7 1.7 2.7.4 1.1.6 2.2.6 3.3v1.3H147c0 .7.2 1.4.5 2 .3.6.6 1.2 1.1 1.6.9.9 2.2 1.4 3.4 1.4l1.4-.2 1.3-.5 1-.8c.3-.3.5-.7.7-1.1l3 .9c-.6 1.3-1.7 2.4-2.9 3.1-1.3.8-2.9 1.3-4.5 1.3zm5.1-10.2c0-.7-.2-1.4-.5-2-.3-.6-.7-1.1-1.1-1.5-.5-.4-1-.8-1.6-1-.6-.3-1.3-.4-1.9-.4-1.3 0-2.5.5-3.4 1.3-.5.4-.8.9-1.1 1.5-.3.6-.5 1.3-.5 2l10.1.1zm12.9 10.2l-2.1-.2-2.1-.5-1.9-.7-1.6-1 1.5-2.4c1.8 1.4 4 2.2 6.3 2.2.9 0 1.8-.2 2.5-.6.6-.4.9-1 .9-1.7.1-.7-.4-1.4-1-1.6-1.1-.4-2.2-.8-3.3-1l-2.7-.8c-.6-.2-1.3-.5-1.8-.9-.4-.3-.8-.7-1-1.2-.2-.5-.3-1.1-.3-1.7 0-.8.2-1.6.5-2.3.3-.7.8-1.3 1.4-1.7.6-.5 1.4-.8 2.1-1 .9-.3 1.7-.4 2.6-.4 1.2 0 2.4.2 3.5.6 1.1.4 2.2.9 3.1 1.6l-1.5 2.2c-1.5-1.2-3.4-1.8-5.3-1.8-.8 0-1.6.2-2.3.6-.6.4-1 1.1-.9 1.8 0 .3.1.6.2.9.1.3.4.5.6.6l1.1.5 1.7.5 3 .8c.8.2 1.5.6 2.1 1 .5.3.9.8 1.2 1.3.3.6.4 1.2.4 1.8 0 .8-.2 1.5-.5 2.2-.3.6-.8 1.2-1.4 1.6-.7.5-1.4.8-2.2 1-.9.2-1.8.3-2.8.3zm8.9-8.9c0-1.2.2-2.3.6-3.4.8-2.1 2.4-3.9 4.6-4.8 1.2-.5 2.4-.7 3.6-.7 1.6-.1 3.2.3 4.6 1.1 1.2.7 2.2 1.8 2.8 3l-3.4 1.1c-.4-.7-.9-1.3-1.6-1.7-.7-.4-1.5-.6-2.3-.6-.7 0-1.4.1-2 .4-.6.3-1.2.7-1.6 1.2-.5.5-.9 1.1-1.1 1.8-.3.7-.4 1.5-.4 2.3 0 .8.1 1.6.4 2.3.3.7.6 1.3 1.1 1.8.5.5 1 .9 1.6 1.2.6.3 1.3.4 2 .4l1.3-.2 1.2-.5.9-.7c.3-.3.5-.6.6-.9l3.5 1c-.6 1.3-1.6 2.4-2.8 3.1-1.4.8-3 1.3-4.7 1.2-1.3 0-2.5-.2-3.6-.7-1.1-.4-2-1.1-2.8-1.9-.8-.8-1.4-1.8-1.8-2.8-.5-.9-.7-2-.7-3zm24.5 8.9c-1.6.1-3.1-.5-4-1.7-1-1.5-1.5-3.3-1.4-5.2v-10.5h3.5v9.7c0 3 1.1 4.6 3.2 4.6 1 0 2.1-.3 2.9-.9 1-.7 1.7-1.6 2.1-2.7V199h3.5v12.9c0 .3 0 .6.2.9.2.2.5.3.8.3v3h-1.7c-1.1.1-2.2-.7-2.3-1.8v-1.7c-.7 1.2-1.7 2.2-2.9 2.8-1.2.5-2.5.9-3.9.9zm22.6 0c-1.3 0-2.5-.2-3.6-.7-1.1-.4-2-1.1-2.8-1.9-.8-.8-1.4-1.8-1.8-2.8-.4-1.1-.6-2.3-.6-3.4 0-1.2.2-2.3.6-3.4.4-1.1 1-2 1.8-2.8.8-.8 1.8-1.5 2.8-1.9 1.2-.5 2.4-.7 3.6-.7 1.3 0 2.5.2 3.6.7 1 .5 2 1.1 2.7 1.9.7.8 1.3 1.7 1.7 2.7.4 1.1.6 2.2.6 3.3v1.3h-13.8c0 .7.2 1.4.5 2 .3.6.6 1.2 1.1 1.6.9.9 2.2 1.4 3.4 1.4l1.4-.2 1.3-.5 1-.8c.3-.3.5-.7.7-1.1l3 .9c-.6 1.3-1.7 2.4-2.9 3.1-1.1.8-2.7 1.2-4.3 1.3zm5.2-10.2c0-.7-.2-1.4-.5-2-.3-.6-.7-1.1-1.1-1.5-.5-.4-1-.8-1.6-1-.6-.3-1.3-.4-1.9-.4-1.3 0-2.5.5-3.4 1.3-.5.4-.8.9-1.1 1.5-.3.6-.5 1.3-.5 2l10.1.1z" class="st1"/></svg>